<svg width="16" height="16" viewBox="0 0 16 16" fill="none" xmlns="http://www.w3.org/2000/svg">
<path fill-rule="evenodd" clip-rule="evenodd" d="M2.75771 0.963281H0V0H3.54741L5.64911 10.5085H13.6165L14.825 4.46612H7.06406V3.50284H16L14.4062 11.4718H4.85941L2.75771 0.963281ZM6.10078 13.6464C5.74611 13.6464 5.45859 13.9339 5.45859 14.2886C5.45859 14.6433 5.74611 14.9308 6.10078 14.9308C6.45545 14.9308 6.74297 14.6433 6.74297 14.2886C6.74297 13.9339 6.45545 13.6464 6.10078 13.6464ZM4.81641 14.2886C4.81641 13.5793 5.39144 13.0042 6.10078 13.0042C6.81012 13.0042 7.38516 13.5793 7.38516 14.2886C7.38516 14.9979 6.81012 15.573 6.10078 15.573C5.39144 15.573 4.81641 14.9979 4.81641 14.2886ZM12.5227 14.2887C12.5227 13.934 12.8102 13.6465 13.1648 13.6465C13.5195 13.6465 13.807 13.934 13.807 14.2887C13.807 14.6433 13.5195 14.9309 13.1648 14.9309C12.8102 14.9309 12.5227 14.6433 12.5227 14.2887ZM13.1648 13.0043C12.4555 13.0043 11.8805 13.5793 11.8805 14.2887C11.8805 14.998 12.4555 15.573 13.1648 15.573C13.8742 15.573 14.4492 14.998 14.4492 14.2887C14.4492 13.5793 13.8742 13.0043 13.1648 13.0043Z" fill="#291300"/>
</svg>
