<svg width="1" height="1" viewBox="0 0 16 16" fill="none" xmlns="http://www.w3.org/2000/svg">
<path d="M15.2944 2.223L15.2696 2.20752L12.1372 0.664307L8.75629 5.17218L10.3118 7.24628C10.2652 8.02848 9.93351 8.76646 9.37943 9.32053C8.82536 9.8746 8.08737 10.2063 7.30517 10.2528L5.23111 8.69736L0.723267 12.0782L2.25364 15.1844L2.26652 15.2106L2.28203 15.2354C2.3637 15.367 2.47769 15.4755 2.61315 15.5506C2.74861 15.6256 2.90103 15.6648 3.0559 15.6643H3.86417C5.42153 15.6643 6.96364 15.3576 8.40246 14.7616C9.84127 14.1656 11.1486 13.2921 12.2498 12.1908C13.351 11.0896 14.2246 9.78228 14.8206 8.34346C15.4165 6.90465 15.7233 5.36253 15.7233 3.80517V2.99687C15.7238 2.842 15.6846 2.68958 15.6095 2.55412C15.5345 2.41866 15.426 2.30467 15.2944 2.223ZM14.5657 3.80517C14.5657 9.70603 9.76499 14.5067 3.86417 14.5067H3.21015L2.18621 12.4281L5.23132 10.1442L6.92668 11.4157H7.1196C8.27431 11.4144 9.38135 10.9551 10.1979 10.1386C11.0144 9.32214 11.4736 8.2151 11.4749 7.06039V6.86747L10.2035 5.17215L12.487 2.12721L14.5657 3.15133V3.80517Z" fill="white"/>
</svg>
