<svg width="18" height="16" viewBox="0 0 18 16" fill="none" xmlns="http://www.w3.org/2000/svg">
<path fill-rule="evenodd" clip-rule="evenodd" d="M3.92701 11.5266L3.6897 11.0341C3.24801 10.1174 3 9.08908 3 8C3 4.13401 6.13401 1 10 1C13.866 1 17 4.13401 17 8C17 11.866 13.866 15 10 15C8.89526 15 7.85296 14.7448 6.92628 14.2911L6.65842 14.1599L6.36249 14.1969L1.94388 14.7492L3.64047 11.9923L3.92701 11.5266ZM0.671856 14.9082L0 16L1.27203 15.841L6.48652 15.1892C7.5471 15.7085 8.73951 16 10 16C14.4183 16 18 12.4183 18 8C18 3.58172 14.4183 0 10 0C5.58172 0 2 3.58172 2 8C2 9.24258 2.28329 10.419 2.78881 11.4682L0.671856 14.9082Z" fill="black" fill-opacity="0.8"/>
</svg>
