<?xml version="1.0" encoding="UTF-8" ?>
<!DOCTYPE svg PUBLIC "-//W3C//DTD SVG 1.1//EN" "http://www.w3.org/Graphics/SVG/1.1/DTD/svg11.dtd">
<svg width="30pt" height="30pt" viewBox="0 0 96 96" version="1.1" xmlns="http://www.w3.org/2000/svg">
<g id="#000000ff">
<path fill="#DA9E02" opacity="1.00" d=" M 28.68 15.99 C 31.13 13.32 33.58 10.65 36.04 8.00 C 44.03 8.00 52.01 8.00 59.99 8.00 C 62.46 10.65 64.92 13.32 67.37 15.99 C 71.96 16.11 76.55 15.79 81.13 16.14 C 85.36 16.55 88.39 20.81 88.00 24.95 C 87.97 40.66 88.07 56.37 87.95 72.09 C 88.06 76.73 83.58 80.47 79.04 80.00 C 58.00 79.97 36.95 80.06 15.91 79.95 C 11.71 80.04 7.95 76.29 8.05 72.08 C 7.93 56.36 8.03 40.64 8.00 24.92 C 7.60 20.77 10.67 16.52 14.92 16.13 C 19.49 15.79 24.09 16.10 28.68 15.99 M 39.42 16.05 C 37.04 18.73 34.60 21.36 32.17 24.00 C 26.78 24.00 21.39 24.00 16.00 24.00 C 16.00 40.00 16.00 56.00 16.00 72.00 C 37.33 72.00 58.67 72.00 80.00 72.00 C 80.00 56.00 80.00 40.00 80.00 24.00 C 74.63 24.00 69.27 23.99 63.91 24.01 C 61.45 21.39 59.00 18.76 56.63 16.07 C 50.89 15.94 45.16 15.98 39.42 16.05 Z" />
<path fill="#DA9E02" opacity="1.00" d=" M 42.45 28.78 C 49.06 26.83 56.62 28.61 61.62 33.38 C 66.44 37.79 68.82 44.67 67.74 51.12 C 66.74 57.91 61.92 63.94 55.56 66.50 C 48.76 69.37 40.42 68.00 34.91 63.09 C 29.76 58.71 27.15 51.61 28.24 44.93 C 29.32 37.39 35.12 30.83 42.45 28.78 M 44.42 36.58 C 40.51 37.78 37.34 41.11 36.38 45.09 C 34.54 51.63 39.37 58.85 46.05 59.81 C 53.06 61.20 60.20 55.11 59.96 47.99 C 60.25 40.22 51.77 33.94 44.42 36.58 Z" />
</g>
</svg>
