<svg width="40" height="40" viewBox="0 0 40 40" fill="none" xmlns="http://www.w3.org/2000/svg">
<path fill-rule="evenodd" clip-rule="evenodd" d="M13.927 23.5266L13.6897 23.0341C13.248 22.1174 13 21.0891 13 20C13 16.134 16.134 13 20 13C23.866 13 27 16.134 27 20C27 23.866 23.866 27 20 27C18.8953 27 17.853 26.7448 16.9263 26.2911L16.6584 26.1599L16.3625 26.1969L11.9439 26.7492L13.6405 23.9923L13.927 23.5266ZM10.6719 26.9082L10 28L11.272 27.841L16.4865 27.1892C17.5471 27.7085 18.7395 28 20 28C24.4183 28 28 24.4183 28 20C28 15.5817 24.4183 12 20 12C15.5817 12 12 15.5817 12 20C12 21.2426 12.2833 22.419 12.7888 23.4682L10.6719 26.9082Z" fill="black" fill-opacity="0.8"/>
</svg>
